<svg className="logo"
    xmlns="http://www.w3.org/2000/svg" viewBox="0 0 1208.79 389.44">
    <defs>
        <style>.a{fill: red}</style>
    </defs>
    <title>Asset 1horizontal</title>
    <path className="a" d="M185.86,169a97,97,0,0,1-.7,10.21H33.79q3.17,24.64,21.65,39.6t45.94,15q33.44,0,53.86-22.53L173.89,233a81.72,81.72,0,0,1-31.5,22.53q-18.83,7.74-42.06,7.74-29.57,0-52.45-12.14a86.62,86.62,0,0,1-35.38-34Q0,195.36,0,167.9,0,140.8,12.14,119A87,87,0,0,1,45.58,85q21.3-12.14,48-12.14T141.33,85a85.28,85.28,0,0,1,32.74,34q11.79,21.82,11.79,50ZM93.63,101.38q-24.29,0-40.66,14.78T33.79,154.88H153.47q-2.82-23.58-19.18-38.54t-40.66-15Z"/>
    <polygon className="a" points="305.18 174.24 266.46 210.14 266.46 261.18 232.67 261.18 232.67 0 266.46 0 266.46 167.55 368.19 74.62 409.02 74.62 330.53 151.71 416.77 261.18 375.23 261.18 305.18 174.24 305.18 174.24"/>
    <path className="a" d="M513.92,72.86q38.72,0,59.31,19t20.59,56.67V261.18h-32V236.54q-8.45,13-24.11,19.89t-37.14,6.86q-31.33,0-50.16-15.14t-18.83-39.78q0-24.64,18-39.6t57-15H560v-6.69q0-21.82-12.67-33.44T510,102.08a98.79,98.79,0,0,0-32.38,5.46,83.43,83.43,0,0,0-26.75,14.61L436.83,96.8Q451.26,85.18,471.33,79a144.33,144.33,0,0,1,42.59-6.16Zm-7.74,164.38q19.36,0,33.44-8.62A49.35,49.35,0,0,0,560,204.16v-26h-52.1Q465,178.11,465,207q0,14.08,10.91,22.18t30.27,8.1Z"/>
    <polygon className="a" points="794.82 233.38 794.82 261.18 638.53 261.18 638.53 239.36 748.7 102.43 640.64 102.43 640.64 74.62 792 74.62 792 96.8 681.82 233.38 794.82 233.38 794.82 233.38"/>
    <path className="a" d="M1175.57,297.13v-4.25a43.33,43.33,0,0,0-43.28-43.28H1092.4a43.33,43.33,0,0,0-43.28,43.28v31.76a36.86,36.86,0,0,1-36.83,36.8H989.22c-20.49,0-37.8-16.85-37.8-36.8V285.52a93.42,93.42,0,0,0,79.29-92.23V127.51a30.61,30.61,0,1,0-28,0v65.78c0,35.39-29.9,65.28-65.29,65.28-35.63,0-66.89-30.51-66.89-65.28V127.51a30.61,30.61,0,1,0-28,0v65.78a93.53,93.53,0,0,0,80.89,92.46v38.89A63.72,63.72,0,0,0,943,370.5a65.92,65.92,0,0,0,45.92,18.94h23.42a64.88,64.88,0,0,0,64.8-64.8V292.88a15.3,15.3,0,0,1,15.28-15.28h39.89a15.3,15.3,0,0,1,15.28,15.28v4.25a47.22,47.22,0,1,0,28,0Zm5,44.63a19.22,19.22,0,1,1-19.22-19.22A19.24,19.24,0,0,1,1180.57,341.75ZM1016.7,93.68c4.32,0,6.61,2.29,6.61,6.61s-2.29,6.61-6.61,6.61-6.61-2.16-6.61-6.61S1012.25,93.68,1016.7,93.68Zm-160.17,0c4.76,0,6.61,1.85,6.61,6.61,0,6.13-5.06,6.61-6.61,6.61a6.79,6.79,0,0,1-6.61-6.61C849.92,96,852.27,93.68,856.53,93.68Z"/>
</svg>
