<svg width="386px" height="725px" viewBox="0 0 386 725" version="1.1"
    xmlns="http://www.w3.org/2000/svg"
    xmlns:xlink="http://www.w3.org/1999/xlink">
    <g id="Page-1" stroke="none" stroke-width="1" fill="none" fill-rule="evenodd">
        <g id="Desktop-HD" transform="translate(0.000000, -299.000000)" fill="#DA4446">
            <g id="Group-2" transform="translate(-824.000000, 292.000000)">
                <g id="Group">
                    <path d="M174.360608,219.837937 C-196.054753,321.321826 111.352779,673.838426 304.696053,803.958199 C523.450533,951.179681 1092.20503,1121.58492 1139.09446,767.38767 C1151.81542,671.294985 1243.7028,463.648154 1196.73824,303.471573 C1158.32851,172.471929 994.406934,83.0126698 890.677717,30.6178238 C653.73578,-89.064333 320.665607,179.754286 174.360608,219.837937 Z" id="Path-2" opacity="0.518880208"></path>
                    <path d="M204.508578,233.795626 C-185.230297,310.813638 156.064028,670.329684 339.005388,793.421976 C545.990827,932.692351 1072.97275,1086.84125 1117.33952,751.773409 C1128.58025,666.880878 1202.34728,469.505698 1160.55337,328.913199 C1120.99339,195.835536 969.198439,118.578018 863.115036,65.0057982 C638.92063,-48.2125901 362.709242,202.532897 204.508578,233.795626 Z" id="Path-2"></path>
                </g>
            </g>
        </g>
    </g>
</svg>
