<svg xmlns="http://www.w3.org/2000/svg" xmlns:xlink="http://www.w3.org/1999/xlink" width="167px" height="205px" version="1.1" viewBox="0 0 579 577">
    <g id="Page-1" fill="none" fill-rule="evenodd" stroke="none" stroke-width="1">
        <g id="Desktop-HD" transform="translate(-428.000000, -223.000000)">
            <g id="student" transform="translate(428.000000, 223.000000)">
                <path id="Path" fill="#DA4446" fill-opacity="0.52" d="M578.662916,300.215167 C578.803747,363.712363 551.819809,593.814639 298.032666,575.4497 C-38.3599525,551.107137 2.5613532,301.391058 2.48821475,268.414732 C2.17330117,130.147878 124.940695,-18.6959813 319.912563,2.86900159 C514.88443,24.4339845 578.348002,161.950269 578.662916,300.215167 Z"/>
                <path id="Path" fill="#DA4446" d="M547.999,288.406 C548.143,353.337 524.116,412.672 484.367,457.895 C475.784,467.666 466.458,476.781 456.498,485.142 C414.084,520.772 359.934,542.878 300.666,544.855 C297.99,544.944 295.292,544.988 292.594,544.999 C289.752,545.01 286.931,544.966 284.111,544.877 C224.954,543.089 170.815,521.216 128.323,485.831 C118.352,477.537 109.015,468.488 100.41,458.784 C60.461,413.739 36.145,354.515 36.001,289.584 C35.679,148.195 150.03,33.323 291.417,33.001 C432.793,32.679 547.677,147.019 547.999,288.406 Z"/>
                <g id="Group" fill="#F0A037" transform="translate(419.000000, 146.000000)">
                    <rect id="Rectangle" width="5.552" height="46.633" x="10.128" y="0.296"/>
                    <circle id="Oval" cx="12.904" cy="53.957" r="10.363"/>
                    <polygon id="Path" points="0.667 82.623 12.903 59.514 25.139 82.623"/>
                </g>
                <path id="Path" fill="#666666" d="M456.496,485.138 C414.082,520.768 359.932,542.874 300.664,544.851 C297.988,544.94 295.29,544.984 292.592,544.995 C289.75,545.006 286.929,544.962 284.109,544.873 C237.509,543.463 194.018,529.595 156.89,506.456 C146.886,500.238 137.337,493.332 128.322,485.826 C152.305,461.088 181.828,441.747 214.915,429.8 C223.042,426.858 231.392,424.371 239.93,422.35 C248.546,420.318 257.34,418.775 266.3,417.753 C272.174,417.065 278.103,416.621 284.109,416.398 C286.796,416.287 289.494,416.243 292.214,416.231 C295.045,416.22 297.865,416.264 300.663,416.375 C324.712,417.186 347.851,421.716 369.48,429.399 C402.679,441.203 432.358,460.456 456.496,485.138 Z"/>
                <path id="Path" fill="#5E5E5E" d="M266.302,417.757 L254.355,432.402 C254.355,432.402 191.278,458.128 156.892,506.46 C146.888,500.242 137.339,493.336 128.324,485.83 C158.202,455.008 196.697,432.557 239.932,422.353 C248.548,420.322 257.342,418.778 266.302,417.757 Z"/>
                <g id="Group" fill="#EFC881" transform="translate(148.000000, 243.000000)">
                    <path id="Path" d="M75.236,32.861 C75.236,14.916 58.476,0.369 37.801,0.369 C17.126,0.369 0.366,14.916 0.366,32.861 C0.366,50.806 17.126,77.961 37.801,77.961 C58.476,77.961 75.236,50.806 75.236,32.861 Z"/>
                    <path id="Path" d="M287.639,32.861 C287.639,14.916 270.879,0.369 250.204,0.369 C229.529,0.369 212.769,14.916 212.769,32.861 C212.769,50.806 229.529,77.961 250.204,77.961 C270.879,77.961 287.639,50.806 287.639,32.861 Z"/>
                </g>
                <g id="Group" fill="#E0B775" transform="translate(162.000000, 262.000000)">
                    <path id="Path" d="M259.074,19.223 C259.074,8.634 252.612,0.049 244.64,0.049 C236.668,0.049 230.206,8.633 230.206,19.223 C230.206,29.813 236.668,31.18 244.64,31.18 C252.612,31.18 259.074,29.812 259.074,19.223 Z"/>
                    <path id="Path" d="M29.794,19.223 C29.794,8.634 23.332,0.049 15.36,0.049 C7.388,0.049 0.926,8.633 0.926,19.223 C0.926,29.813 7.388,31.18 15.36,31.18 C23.332,31.18 29.794,29.812 29.794,19.223 Z"/>
                </g>
                <path id="Path" fill="#E6E6E6" d="M369.481,429.401 C358.056,440.882 344.543,449.853 329.643,455.538 C328.91,455.827 328.177,456.104 327.445,456.36 C316.275,460.368 304.362,462.511 292.004,462.511 C279.635,462.511 267.721,460.368 256.563,456.36 C255.819,456.105 255.086,455.827 254.353,455.538 C239.619,449.92 226.251,441.093 214.915,429.801 C223.042,426.859 231.392,424.372 239.93,422.351 C248.546,420.319 257.34,418.776 266.3,417.754 C272.174,417.066 278.103,416.622 284.109,416.399 C286.796,416.288 289.494,416.244 292.214,416.232 C295.045,416.221 297.865,416.265 300.663,416.376 C324.713,417.187 347.852,421.717 369.481,429.401 Z"/>
                <path id="Path" fill="#F9D387" d="M407.345,244.959 L407.345,311.7 C407.345,324.302 405.691,336.493 402.604,347.996 C401.471,352.226 400.161,356.346 398.64,360.365 C386.116,394.041 360.934,420.466 329.645,432.402 C328.912,432.691 328.179,432.968 327.447,433.224 C316.277,437.232 304.364,439.375 292.006,439.375 C279.637,439.375 267.724,437.232 256.565,433.224 C255.821,432.969 255.088,432.691 254.355,432.402 C231.116,423.542 211.264,406.687 197.44,384.792 C192.643,377.209 188.58,369.026 185.36,360.365 C183.839,356.346 182.529,352.226 181.407,347.996 C178.309,336.493 176.655,324.302 176.655,311.7 L176.655,244.959 C176.655,204.744 193.454,168.88 219.702,145.486 C239.477,127.843 264.625,117.284 292.005,117.284 C323.849,117.284 352.683,131.574 373.557,154.69 C394.432,177.785 407.345,209.707 407.345,244.959 Z"/>
                <g id="Group" fill="#EFC881" transform="translate(176.000000, 311.000000)">
                    <path id="Path" d="M21.097,31.145 L20.942,29.956 C19.323,17.562 12.239,6.872 2.046,1.439 L0.657,0.698 C0.657,13.306 2.308,25.493 5.401,36.999 C6.528,41.222 7.839,45.342 9.359,49.36 C21.89,83.035 47.068,109.47 78.356,121.396 C72.212,93.596 57.497,70.829 38.371,58.738 C29.108,52.881 22.624,42.835 21.097,31.145 Z"/>
                    <path id="Path" d="M211.062,29.957 L210.907,31.146 C209.38,42.835 202.896,52.883 193.631,58.741 C174.506,70.832 159.791,93.599 153.646,121.399 C184.933,109.473 210.112,83.038 222.643,49.363 C224.163,45.344 225.474,41.223 226.601,37.002 C229.694,25.497 231.345,13.309 231.345,0.701 L229.956,1.442 C219.764,6.872 212.68,17.562 211.062,29.957 Z"/>
                </g>
                <path id="Path" fill="#666666" d="M484.828,129.754 L398.057,167.382 C398.057,157.767 185.943,157.767 185.943,167.382 L99.172,129.754 L292,46.148 L484.828,129.754 Z"/>
                <path id="Path" fill="#999999" d="M398.06,138.51 L398.06,191.394 C343.277,177.326 286.385,174.34 230.703,182.423 C225.129,183.234 219.567,184.155 214.026,185.188 C204.611,186.931 195.251,189.007 185.946,191.395 L185.946,138.51 C195.25,136.123 204.61,134.058 214.015,132.303 C219.555,131.27 225.129,130.36 230.703,129.549 C286.385,121.456 343.278,124.443 398.06,138.51 Z"/>
                <path id="Path" fill="#808080" d="M214.026,185.188 C204.611,186.931 195.251,189.007 185.946,191.395 L185.946,138.51 C195.25,136.123 204.61,134.058 214.015,132.303 L214.026,132.314 C214.026,132.315 204.888,158.94 214.026,185.188 Z"/>
                <g id="Group" fill="#4D4D4D" transform="translate(227.000000, 270.000000)">
                    <path class="eye" id="Path" d="M129.205,8.043 L129.205,30.555 C129.205,34.768 125.797,38.175 121.585,38.175 C117.522,38.175 114.204,34.996 113.985,30.982 C113.975,30.843 113.975,30.693 113.975,30.555 L113.975,8.043 C113.975,3.83 117.383,0.423 121.585,0.423 C123.691,0.423 125.599,1.277 126.969,2.648 C127.953,3.632 128.668,4.883 128.995,6.274 C129.135,6.841 129.205,7.437 129.205,8.043 Z"/>
                    <path class="eye" id="Path" d="M8.41,38.174 C4.204,38.174 0.793,34.764 0.793,30.557 L0.793,8.039 C0.793,3.833 4.203,0.422 8.41,0.422 C12.616,0.422 16.027,3.832 16.027,8.039 L16.027,30.557 C16.026,34.764 12.617,38.174 8.41,38.174 Z"/>
                </g>
                <g id="Group" fill="#68635B" transform="translate(216.000000, 231.000000)">
                    <path id="Path" d="M151.096,19.437 C151.096,9.217 142.811,0.931 132.59,0.931 C122.369,0.931 114.084,9.216 114.084,19.437 C124.305,9.217 140.876,9.217 151.096,19.437 Z" class="up"/>
                    <path id="Path" d="M37.915,19.437 C37.915,9.217 29.63,0.931 19.409,0.931 C9.189,0.931 0.903,9.216 0.903,19.437 C11.125,9.217 27.695,9.217 37.915,19.437 Z" class="up"/>
                </g>
                <g id="Group" fill="#666666" transform="translate(227.000000, 276.000000)">
                    <path class="eye" id="Path" d="M129.2,2.043 L129.2,24.555 C129.2,28.768 125.792,32.175 121.58,32.175 C117.517,32.175 114.199,28.996 113.98,24.982 C122.504,16.219 126.825,6.872 128.99,0.275 C129.131,0.841 129.2,1.437 129.2,2.043 Z"/>
                    <path class="eye" id="Path" d="M16.02,2.043 L16.02,24.555 C16.02,28.768 12.612,32.175 8.4,32.175 C4.336,32.175 1.019,28.996 0.8,24.982 C9.324,16.219 13.645,6.872 15.81,0.275 C15.95,0.841 16.02,1.437 16.02,2.043 Z"/>
                </g>
                <path id="Path" fill="#E0B775" d="M310.089,331.675 C310.089,331.108 309.975,330.554 309.758,330.017 C307.456,324.332 305.827,318.408 305.876,312.274 C305.882,311.589 305.884,310.891 305.884,310.179 C305.884,275.93 299.668,255.421 292.002,255.421 C284.335,255.421 278.12,275.931 278.12,310.179 C278.12,310.891 278.122,311.589 278.128,312.274 C278.177,318.407 276.547,324.332 274.246,330.017 C274.028,330.553 273.915,331.107 273.915,331.675 C273.915,334.471 276.669,336.951 280.931,338.542 C283.466,346.457 287.481,347.55 292.002,347.55 C296.523,347.55 300.539,346.457 303.073,338.542 C307.336,336.952 310.089,334.471 310.089,331.675 Z"/>
                <path id="Path" fill="#4D4D4D" d="M333.417,365.599 C333.406,365.71 333.406,365.81 333.395,365.921 C333.351,366.554 333.284,367.187 333.184,367.809 C333.106,368.298 333.017,368.775 332.906,369.252 C332.828,369.596 332.739,369.94 332.651,370.285 C332.285,371.606 331.796,372.894 331.185,374.149 C329.242,378.213 326.122,381.877 322.114,384.919 C314.542,390.648 303.86,394.223 292.002,394.223 C280.144,394.223 269.463,390.648 261.89,384.919 C257.882,381.877 254.762,378.213 252.819,374.149 C252.208,372.894 251.72,371.606 251.353,370.285 C251.264,369.941 251.175,369.597 251.098,369.252 C250.987,368.775 250.898,368.297 250.82,367.809 C250.72,367.187 250.653,366.554 250.609,365.921 C250.598,365.81 250.598,365.71 250.587,365.599 C252.041,365.888 253.518,366.165 255.028,366.421 C266.187,368.353 278.733,369.43 292.001,369.43 C305.269,369.43 317.816,368.353 328.974,366.421 C330.486,366.165 331.962,365.887 333.417,365.599 Z"/>
                <path id="Path" fill="#F2F2F2" d="M333.417,365.599 C333.406,365.71 333.406,365.81 333.395,365.921 C333.351,366.554 333.284,367.187 333.184,367.809 C333.106,368.298 333.017,368.775 332.906,369.252 C332.828,369.596 332.739,369.94 332.651,370.285 C332.285,371.606 331.796,372.894 331.185,374.149 C327.188,374.771 323.024,375.304 318.727,375.726 C310.278,376.57 301.306,377.014 292.002,377.014 C282.698,377.014 273.726,376.57 265.277,375.726 C260.98,375.304 256.816,374.771 252.819,374.149 C252.208,372.894 251.72,371.606 251.353,370.285 C251.264,369.941 251.175,369.597 251.098,369.252 C250.987,368.775 250.898,368.297 250.82,367.809 C250.72,367.187 250.653,366.554 250.609,365.921 C250.598,365.81 250.598,365.71 250.587,365.599 C252.041,365.888 253.518,366.165 255.028,366.421 C266.187,368.353 278.733,369.43 292.001,369.43 C305.269,369.43 317.816,368.353 328.974,366.421 C330.486,366.165 331.962,365.887 333.417,365.599 Z"/>
                <path id="Path" fill="#FFFFFF" d="M328.976,366.42 C327.166,369.007 324.846,371.372 322.114,373.448 C321.048,374.259 319.916,375.025 318.728,375.724 C310.279,376.568 301.307,377.012 292.003,377.012 C282.699,377.012 273.727,376.568 265.278,375.724 C264.09,375.025 262.957,374.258 261.892,373.448 C259.161,371.372 256.84,369.007 255.03,366.42 C266.189,368.352 278.735,369.429 292.003,369.429 C305.271,369.429 317.817,368.352 328.976,366.42 Z"/>
                <path id="Path" fill="#EFC881" d="M313.764,403.074 C313.764,398.533 304.021,403.558 292.001,403.558 C279.981,403.558 270.238,398.534 270.238,403.074 C270.238,407.614 279.981,411.296 292.001,411.296 C304.021,411.295 313.764,407.614 313.764,403.074 Z"/>
            </g>
        </g>
    </g>
</svg>
