<?xml version="1.0" encoding="utf-8"?>
<!--Generator: Adobe Illustrator 21.0.2, SVG Export Plug-In . SVG Version: 6.00 Build 0)-->
<svg xmlns="http://www.w3.org/2000/svg" xmlns:xlink="http://www.w3.org/1999/xlink" id="Layer_1" width="169px" height="205px" x="0px" y="0px" style="enable-background:new 0 0 169 205" version="1.1" viewBox="0 0 169 205" xml:space="preserve">
  <style type="text/css">
    .st2{fill:#f2f2f2}.st3{fill:#e0b775}.st4{fill:#e6e6e6}.st5{fill:#a5795b}.st6{fill:#efc881}.st8{fill:#68635b}.st9{fill:#4d4d4d}.st11{fill:#666}.st12{fill:#848484}.st13{fill:#959595}.st14{fill:#fbe1ac}.st16{fill:#8e654a}
  </style>
  <path id="Path" d="M168.9,107.5c0,18.6-4.2,77-78.6,79.7c-98.5,3.6-89.9-79.4-89.9-89c-0.1-40.4,32.9-86.3,89.9-80
	S168.8,67.1,168.9,107.5z" style="fill:#da4446;fill-opacity:.52"/>
  <path id="Path_1_" d="M159.4,104.1c0,19-7,36.3-18.6,49.6c-2.5,2.9-5.2,5.5-8.1,8c-12.4,10.4-28.2,16.9-45.6,17.5
	c-0.8,0-1.6,0-2.4,0c-0.8,0-1.7,0-2.5,0c-17.3-0.5-33.1-6.9-45.6-17.3c-2.9-2.4-5.6-5.1-8.2-7.9c-11.7-13.2-18.8-30.5-18.8-49.5
	C9.6,63.1,43,29.5,84.3,29.4C125.7,29.3,159.3,62.7,159.4,104.1" style="fill:#da4446"/>
  <path id="Path_2_" d="M132.6,161.6c-11.7,9.8-26.4,16.1-42.5,17.3c-1,0.1-2,0.1-3.1,0.2c-0.8,0-1.6,0-2.4,0
	c-0.8,0-1.7,0-2.5,0c-1.2,0-2.5-0.1-3.7-0.2c-12.2-1-23.6-4.9-33.5-11c-2.9-1.8-5.7-3.8-8.4-6c6.9-7.1,15.3-12.7,24.8-16.2
	c1.2-0.4,2.4-0.8,3.6-1.2c1.4-0.4,2.8-0.8,4.3-1.2c2.5-0.6,5.1-1,7.7-1.3c1.7-0.2,3.5-0.3,5.2-0.4c0.8,0,1.6,0,2.4,0
	c0.8,0,1.7,0,2.5,0c5.8,0.2,11.4,1.1,16.7,2.7c1.3,0.4,2.7,0.8,4,1.3C117.2,149,125.7,154.5,132.6,161.6z" class="st2"/>
  <path id="Path_3_" d="M103.8,146.9c-3.5,3.6-3.7,5.1-8.3,6.9c-0.2,0.1-0.4,0.2-0.6,0.2c-3.3,1.2-6.7,1.8-10.4,1.8
	c-3.6,0-7.1-0.6-10.4-1.8c-0.2-0.1-0.4-0.2-0.6-0.2c-4.6-1.7-5.2-3.8-8.7-7.3c1.2-0.4-1.1-1.6,0.2-2c1.4-0.4,2.8-0.8,4.3-1.2
	c2.5-0.6,5.1-1,7.7-1.3c1.7-0.2,3.5-0.3,5.2-0.4c0.8,0,1.6,0,2.4,0c0.8,0,1.7,0,2.5,0c5.8,0.2,11.4,1.1,16.7,2.7
	C105.1,144.6,102.5,146.4,103.8,146.9z" class="st3"/>
  <path id="Path_4_" d="M77,141.9l-3.5,4.3c0,0-18.4,7.5-28.5,21.7c-2.9-1.8-5.7-3.8-8.4-6c8.7-9,20-15.6,32.6-18.6
	C71.8,142.7,74.4,142.2,77,141.9z" class="st4"/>
  <path id="Path_5_" d="M85.6,164l4.5,14.9c-1,0.1-2,0.1-3.1,0.2c-0.8,0-1.6,0-2.4,0c-0.8,0-1.7,0-2.5,0
	c-1.2,0-2.5-0.1-3.7-0.2L83,164l-3.1-4.6L77,155l2.1-2.1c1.6,1.1,3.3,1.9,5.2,2.1c1.9-0.2,3.6-1,5.2-2.1l2.1,2.1l-2.9,4.4L85.6,164z
	" class="st5"/>
  <g id="Group" transform="translate(206.000000, 413.000000)">
    <path id="Path_6_" d="M-121.7-258l-12.2,12.2l-11.8-23.9l9-4.9c0,0,3.5,9.9,9.8,14.5C-125.3-259-123.6-258.2-121.7-258
		z" class="st4"/>
    <path id="Path_7_" d="M-97.7-269.8l-11.8,23.9l-12.2-12.2c1.9-0.2,3.6-1,5.2-2.1c6.3-4.5,9.8-14.5,9.8-14.5
		L-97.7-269.8z" class="st4"/>
  </g>
  <g>
    <path id="Path_9_" d="M126.5,100.4c0-5.2-4.9-9.5-10.9-9.5s-10.9,4.3-10.9,9.5s4.9,13.2,10.9,13.2
		S126.5,105.7,126.5,100.4" class="st6"/>
    <path id="Path_10_" d="M122.2,102c0-3.1-1.9-5.6-4.2-5.6c-2.3,0-4.2,2.5-4.2,5.6c0,3.1,1.9,3.5,4.2,3.5
		C120.4,105.5,122.2,105.1,122.2,102z" class="st3"/>
  </g>
  <g>
    <path id="Path_8_" d="M64.4,100.4c0-5.2-4.9-9.5-10.9-9.5s-10.9,4.3-10.9,9.5s4.9,13.2,10.9,13.2
		S64.4,105.7,64.4,100.4" class="st6"/>
    <path id="Path_11_" d="M55.2,102c0-3.1-1.9-5.6-4.2-5.6s-4.2,2.5-4.2,5.6c0,3.1,1.9,3.5,4.2,3.5
		C53.3,105.5,55.2,105.1,55.2,102z" class="st3"/>
  </g>
  <path id="Path_12_" d="M118.2,91.4v19.5c0,3.7-0.5,7.2-1.4,10.6c-0.3,1.2-0.7,2.4-1.2,3.6c-3.7,9.8-11,17.6-20.2,21.1
	c-0.2,0.1-0.4,0.2-0.6,0.2c-3.3,1.2-6.7,1.8-10.4,1.8c-3.6,0-7.1-0.6-10.4-1.8c-0.2-0.1-0.4-0.2-0.6-0.2
	c-6.8-2.6-12.6-7.5-16.6-13.9c-1.4-2.2-2.6-4.6-3.5-7.1c-0.4-1.2-0.8-2.4-1.2-3.6c-0.9-3.4-1.4-6.9-1.4-10.6V91.4
	c0-8.8,2.7-16.8,7.3-23.2c1.6-2.2,3.3-4.2,5.3-5.9c5.8-5.2,13.1-8.2,21.1-8.2c9.3,0,17.7,4.2,23.8,10.9c3.6,4,6.4,8.9,8.1,14.3
	C117.6,83.1,118.2,87.1,118.2,91.4" style="fill:#f9d387"/>
  <path id="Path_13_" d="M96.4,60.9L93,79.4c0,0-23,17.1-42.3,14v-2c0-8.8,2.7-16.8,7.3-23.2l19.3-7.3H96.4z" class="st6"/>
  <g id="Group_4_" transform="translate(213.000000, 239.000000)">
    <path id="Path_16_" d="M-106.5-146c0-3-2.4-5.4-5.4-5.4s-5.4,2.4-5.4,5.4C-114.4-149-109.5-149-106.5-146z" class="st8"/>
    <path id="Path_17_" d="M-139.6-146c0-3-2.4-5.4-5.4-5.4s-5.4,2.4-5.4,5.4C-147.5-149-142.6-149-139.6-146z" class="st8"/>
  </g>
  <path id="Path_20_" d="M89.8,116.7c0-0.2,0-0.3-0.1-0.5c-0.7-1.7-1.1-3.4-1.1-5.2c0-0.2,0-0.4,0-0.6c0-10-1.8-16-4.1-16
	c-2.2,0-4.1,6-4.1,16c0,0.2,0,0.4,0,0.6c0,1.8-0.5,3.5-1.1,5.2c-0.1,0.2-0.1,0.3-0.1,0.5c0,0.8,0.8,1.5,2.1,2
	c0.7,2.3,1.9,2.6,3.2,2.6s2.5-0.3,3.2-2.6C89,118.3,89.8,117.5,89.8,116.7z" class="st3"/>
  <g>
    <path id="Path_21_" d="M96.6,126.7C96.6,126.7,96.6,126.7,96.6,126.7c0,0.3,0,0.5-0.1,0.6c0,0.1,0,0.3-0.1,0.4
		c0,0.1,0,0.2-0.1,0.3c-0.1,0.4-0.2,0.8-0.4,1.1c-0.6,1.2-1.5,2.3-2.7,3.1c-2.2,1.7-5.3,2.7-8.8,2.7s-6.6-1-8.8-2.7
		c-1.2-0.9-2.1-2-2.7-3.1c-0.2-0.4-0.3-0.7-0.4-1.1c0-0.1-0.1-0.2-0.1-0.3c0-0.1-0.1-0.3-0.1-0.4c0-0.2,0-0.4-0.1-0.6
		c0,0,0-0.1,0-0.1c0.4,0.1,0.9,0.2,1.3,0.2c3.3,0.6,6.9,0.9,10.8,0.9s7.5-0.3,10.8-0.9C95.8,126.8,96.2,126.7,96.6,126.7z" class="st9"/>
    <path id="Path_22_" d="M96.6,126.7C96.6,126.7,96.6,126.7,96.6,126.7c0,0.3,0,0.5-0.1,0.6c0,0.1,0,0.3-0.1,0.4
		c0,0.1,0,0.2-0.1,0.3c-0.1,0.4-0.2,0.8-0.4,1.1c-1.2,0.2-2.4,0.3-3.6,0.5c-2.5,0.2-5.1,0.4-7.8,0.4c-2.7,0-5.3-0.1-7.8-0.4
		c-1.3-0.1-2.5-0.3-3.6-0.5c-0.2-0.4-0.3-0.7-0.4-1.1c0-0.1-0.1-0.2-0.1-0.3c0-0.1-0.1-0.3-0.1-0.4c0-0.2,0-0.4-0.1-0.6
		c0,0,0-0.1,0-0.1c0.4,0.1,0.9,0.2,1.3,0.2c3.3,0.6,6.9,0.9,10.8,0.9s7.5-0.3,10.8-0.9C95.8,126.8,96.2,126.7,96.6,126.7z" class="st2"/>
    <path id="Path_23_" d="M95.3,126.9c-0.5,0.8-1.2,1.4-2,2.1c-0.3,0.2-0.6,0.5-1,0.7c-2.5,0.2-5.1,0.4-7.8,0.4
		c-2.7,0-5.3-0.1-7.8-0.4c-0.3-0.2-0.7-0.4-1-0.7c-0.8-0.6-1.5-1.3-2-2.1c3.3,0.6,6.9,0.9,10.8,0.9S92,127.5,95.3,126.9z" style="fill:#fff"/>
  </g>
  <g id="left_eye" class="up eye">
    <path id="Path_15_" d="M68,109.9c-1.2,0-2.2-1-2.2-2.2V101c0-1.2,1-2.2,2.2-2.2c1.2,0,2.2,1,2.2,2.2v6.6
		C70.2,108.9,69.2,109.9,68,109.9" class="st9"/>
    <path id="Path_19_" d="M70.2,101.1v6.6c0,1.2-1,2.2-2.2,2.2c-1.2,0-2.2-0.9-2.2-2.1c2.5-2.6,3.8-5.3,4.4-7.2
		C70.2,100.7,70.2,100.9,70.2,101.1" class="st11"/>
    <path id="Shape" d="M70.2,101.8v5.9c0,1.2-1,2.2-2.2,2.2c0,0,0,0,0,0c1.2,0,2.2-1,2.2-2.2L70.2,101.8
		C70.2,101.8,70.2,101.8,70.2,101.8 M69.6,101.7c-1.4,0-2.7,0.2-3.8,0.5v5.4c0,0,0,0.1,0,0.1c2-2.1,3.2-4.2,3.9-6
		C69.6,101.7,69.6,101.7,69.6,101.7" class="st12"/>
    <path id="Path_25_" d="M69.7,101.7c-0.7,1.8-1.9,3.9-3.9,6c0,0,0,0,0,0c0.1,1.2,1,2.1,2.2,2.1c0,0,0,0,0,0
		c1.2,0,2.2-1,2.2-2.2v-5.9C70,101.8,69.8,101.7,69.7,101.7" class="st13"/>
  </g>
  <g id="right_eye" class="up eye">
    <path id="Path_14_" d="M103.3,101.1v6.6c0,1.2-1,2.2-2.2,2.2c-1.2,0-2.2-0.9-2.2-2.1c0,0,0-0.1,0-0.1v-6.6
		c0-1.2,1-2.2,2.2-2.2c0.6,0,1.2,0.2,1.6,0.7c0.3,0.3,0.5,0.7,0.6,1.1C103.3,100.7,103.3,100.9,103.3,101.1" class="st9"/>
    <path id="Path_18_" d="M103.3,101.1v6.6c0,1.2-1,2.2-2.2,2.2c-1.2,0-2.2-0.9-2.2-2.1c2.5-2.6,3.8-5.3,4.4-7.2
		C103.3,100.7,103.3,100.9,103.3,101.1" class="st11"/>
    <path id="Shape_1_" d="M103.3,102.2v5.5c0,1.2-1,2.2-2.2,2.2c0,0,0,0,0,0c1.2,0,2.2-1,2.2-2.2L103.3,102.2
		L103.3,102.2 M99.6,101.7c-0.3,0-0.5,0-0.8,0v5.9c0,0,0,0.1,0,0.1c1.9-1.9,3.1-4,3.8-5.7C101.7,101.9,100.6,101.7,99.6,101.7" class="st12"/>
    <path id="Path_27_" d="M102.6,102c-0.7,1.7-1.9,3.8-3.8,5.7c0,0,0,0,0,0c0.1,1.2,1,2.1,2.2,2.1h0c1.2,0,2.2-1,2.2-2.2
		v-5.5C103.1,102.1,102.9,102.1,102.6,102" class="st13"/>
  </g>
  <g id="Group_6_" transform="translate(173.000000, 319.000000)">
    <path id="Path_28_" d="M-116.2-199.2l0-0.3c-0.5-3.6-2.5-6.7-5.5-8.3l-0.4-0.2c0,3.7,0.5,7.2,1.4,10.6
		c0.3,1.2,0.7,2.4,1.2,3.6c3.7,9.8,11,17.6,20.2,21.1c-1.8-8.1-6.1-14.8-11.7-18.3C-113.9-192.9-115.8-195.8-116.2-199.2z" class="st6"/>
    <path id="Path_29_" d="M-60.7-199.6l0,0.3c-0.4,3.4-2.3,6.4-5.1,8.1c-5.6,3.5-9.9,10.2-11.7,18.3
		c9.1-3.5,16.5-11.2,20.2-21.1c0.4-1.2,0.8-2.4,1.2-3.6c0.9-3.4,1.4-6.9,1.4-10.6l-0.4,0.2C-58.2-206.3-60.2-203.2-60.7-199.6z" class="st6"/>
  </g>
  <g class="up">
    <g>
      <path id="Path_24_" d="M70.2,101.8v5.9c0,1.2-1,2.2-2.2,2.2c0,0,0,0,0,0c0,0,0,0,0,0c-1.2,0-2.2-0.9-2.2-2.1
			c0,0,0,0,0,0c0,0,0-0.1,0-0.1v-5.4c-3.4,0.9-5.8,2.8-5.8,5c0,3,4.4,5.5,9.6,5.5c5.2,0,9.6-2.5,9.6-5.5
			C79.2,104.4,75.1,101.9,70.2,101.8" class="st14"/>
      <path id="Path_26_" d="M98.8,101.8c-4.9,0.2-8.9,2.6-8.9,5.5c0,3,4.4,5.5,9.6,5.5c5.2,0,9.6-2.5,9.6-5.5
			c0-2.2-2.5-4.2-5.9-5v5.5c0,1.2-1,2.2-2.2,2.2c0,0,0,0,0,0c0,0,0,0,0,0c-1.2,0-2.2-0.9-2.2-2.1c0,0,0,0,0,0c0,0,0-0.1,0-0.1
			L98.8,101.8" class="st14"/>
    </g>
    <path id="Shape_2_" d="M116.9,96.7l-1.1-0.7l-6.3,9.5c-1.2-2.8-5.2-4.9-10.2-4.9c-5.6,0-10,2.6-10.5,6
		c-1.4-0.7-2.9-1.1-4.5-1.1c-1.6,0-3.1,0.4-4.5,1.1c-0.4-3.4-4.9-6-10.5-6c-5,0-9,2-10.2,4.9L53.1,96l-1.1,0.7l7,10.7
		c0.2,3.6,4.7,6.3,10.5,6.3c5.3,0,9.6-2.3,10.4-5.5c1.4-0.9,2.9-1.3,4.6-1.3c1.6,0,3.2,0.5,4.6,1.3c0.8,3.2,5,5.5,10.4,5.5
		c5.8,0,10.3-2.8,10.5-6.3L116.9,96.7z M69.6,112.5c-5,0-9.2-2.4-9.2-5.2s4.2-5.2,9.2-5.2c5,0,9.2,2.4,9.2,5.2
		S74.5,112.5,69.6,112.5z M99.4,112.5c-5,0-9.2-2.4-9.2-5.2s4.2-5.2,9.2-5.2c5,0,9.2,2.4,9.2,5.2S104.4,112.5,99.4,112.5z" style="fill:#f0a037"/>
  </g>
  <g>
    <path id="Path_30_" d="M118.2,91.4v13.4l-0.2,0.7l-9.9-25.3l8.3-0.9C117.6,83.1,118.2,87.1,118.2,91.4z" class="st16"/>
    <path id="Path_31_" d="M50.8,91.4v13.4l0.2,0.7l9.9-25.3l-8.3-0.9C51.4,83.1,50.8,87.1,50.8,91.4z" class="st16"/>
    <path id="Path_32_" d="M120.2,87.1c-12.7,0-21.5-3.8-27.1-7.7c-5.9-4.1-8.4-8.3-8.5-8.5l0,0c0,0-4.5,7.9-16.3,12.7
		c-5.1,2.1-11.4,3.5-19.4,3.5c0,0-2.3-37.1,24.3-38.1c3.3-0.1,7.1,0.3,11.4,1.5c0.9-0.2,1.8-0.5,2.6-0.6
		C122.9,42.2,120.2,87.1,120.2,87.1z" class="st5"/>
    <g id="Group_7_" transform="translate(166.000000, 108.000000)">
      <path id="Path_33_" d="M-105.5-38c0,13,7.7,13.6,7.7,13.6l0,0c-5.1,2.1-11.4,3.5-19.4,3.5c0,0-2.3-37.1,24.3-38.1
			C-92.9-58.9-105.5-50.9-105.5-38z" class="st16"/>
      <path id="Path_34_" d="M-73-28.6c-5.9-4.1-8.4-8.3-8.5-8.5l0,0v-20.3c0.9-0.2,1.8-0.5,2.6-0.6
			C-82.6-52-73-28.6-73-28.6z" class="st16"/>
    </g>
  </g>
  <path id="Path_35_" d="M90.9,137.6c0-1.3-2.8,0.1-6.4,0.1c-3.5,0-6.4-1.5-6.4-0.1c0,1.3,2.8,2.4,6.4,2.4
	C88,140,90.9,138.9,90.9,137.6z" class="st6"/>
</svg>
